<?xml version="1.0" encoding="UTF-8"?>
<svg width="90px" height="26px" viewBox="0 0 90 26" version="1.1" xmlns="http://www.w3.org/2000/svg" xmlns:xlink="http://www.w3.org/1999/xlink">
    <!-- Generator: Sketch 52.4 (67378) - http://www.bohemiancoding.com/sketch -->
    <title>Group 6</title>
    <desc>Created with Sketch.</desc>
    <defs>
        <linearGradient x1="0%" y1="0%" x2="100%" y2="100%" id="linearGradient-1">
            <stop stop-color="#111D29" offset="0%"></stop>
            <stop stop-color="#25242B" offset="100%"></stop>
        </linearGradient>
    </defs>
    <g id="Page-1" stroke="none" stroke-width="1" fill="none" fill-rule="evenodd">
        <g id="Dark" transform="translate(-69.000000, -37.000000)">
            <g id="Group-6" transform="translate(69.000000, 37.000000)">
                <path d="M54.7168421,10.6363636 C55.3568453,10.6363636 55.9218397,10.791049 56.4118421,11.1004242 C56.9018446,11.4097995 57.2843407,11.8489062 57.5593421,12.4177576 C57.8343435,12.9866089 57.9718421,13.6502588 57.9718421,14.4087273 C57.9718421,15.1572159 57.8343435,15.8208658 57.5593421,16.399697 C57.2843407,16.9785281 56.8993446,17.4276146 56.4043421,17.7469697 C55.9093396,18.0663248 55.3468453,18.226 54.7168421,18.226 C54.1668394,18.226 53.6818442,18.1087385 53.2618421,17.8742121 C52.84184,17.6396857 52.5218432,17.3028709 52.3018421,16.8637576 L52.3018421,17.4625455 C52.3018421,17.6821021 52.2343428,17.8592418 52.0993421,17.9939697 C51.9643414,18.1286976 51.7818433,18.1960606 51.5518421,18.1960606 C51.321841,18.1960606 51.1368428,18.1286976 50.9968421,17.9939697 C50.8568414,17.8592418 50.7868421,17.6821021 50.7868421,17.4625455 L50.7868421,8.21127273 C50.7868421,7.99171607 50.8593414,7.81707136 51.0043421,7.68733333 C51.1493428,7.55759531 51.336841,7.49272727 51.5668421,7.49272727 C51.7868432,7.49272727 51.9643414,7.55510039 52.0993421,7.67984848 C52.2343428,7.80459658 52.3018421,7.97175653 52.3018421,8.18133333 L52.3018421,12.0135758 C52.5218432,11.5744625 52.84184,11.2351527 53.2618421,10.9956364 C53.6818442,10.75612 54.1668394,10.6363636 54.7168421,10.6363636 Z M54.3568421,17.0284242 C55.0068454,17.0284242 55.5143403,16.7988912 55.8793421,16.3398182 C56.2443439,15.8807452 56.4268421,15.2370546 56.4268421,14.4087273 C56.4268421,13.5903797 56.2468439,12.9591638 55.8868421,12.5150606 C55.5268403,12.0709574 55.0168454,11.8489091 54.3568421,11.8489091 C53.6968388,11.8489091 53.1893439,12.0734523 52.8343421,12.5225455 C52.4793403,12.9716386 52.3018421,13.6103393 52.3018421,14.4386667 C52.3018421,15.266994 52.4793403,15.9056947 52.8343421,16.3547879 C53.1893439,16.803881 53.6968388,17.0284242 54.3568421,17.0284242 Z M64.6299671,10.6363636 C65.599972,10.6363636 66.3224647,10.8808662 66.7974671,11.3698788 C67.2724695,11.8588913 67.5099671,12.6023788 67.5099671,13.6003636 L67.5099671,17.4775152 C67.5099671,17.7070517 67.4449678,17.8841913 67.3149671,18.0089394 C67.1849665,18.1336875 67.0049683,18.1960606 66.7749671,18.1960606 C66.554966,18.1960606 66.3799678,18.1311926 66.2499671,18.0014545 C66.1199665,17.8717165 66.0549671,17.6970718 66.0549671,17.4775152 L66.0549671,16.9236364 C65.8649662,17.34279 65.582469,17.6646352 65.2074671,17.8891818 C64.8324652,18.1137284 64.3949696,18.226 63.8949671,18.226 C63.4149647,18.226 62.9749691,18.1286979 62.5749671,17.9340909 C62.1749651,17.7394839 61.8624682,17.4675371 61.6374671,17.1182424 C61.412466,16.7689477 61.2999671,16.3797395 61.2999671,15.9506061 C61.2999671,15.4216741 61.4374657,15.0050217 61.7124671,14.7006364 C61.9874685,14.396251 62.4424639,14.1791926 63.0774671,14.0494545 C63.7124703,13.9197165 64.5849616,13.8548485 65.6949671,13.8548485 L66.0399671,13.8548485 L66.0399671,13.4207273 C66.0399671,12.8618558 65.9249683,12.457678 65.6949671,12.2081818 C65.464966,11.9586856 65.0949697,11.8339394 64.5849671,11.8339394 C64.2349654,11.8339394 63.9049687,11.878848 63.5949671,11.9686667 C63.2849656,12.0584853 62.944969,12.1882214 62.5749671,12.3578788 C62.3049658,12.5075765 62.1149677,12.5824242 62.0049671,12.5824242 C61.8549664,12.5824242 61.7324676,12.5275359 61.6374671,12.4177576 C61.5424666,12.3079792 61.4949671,12.1682635 61.4949671,11.9986061 C61.4949671,11.8489083 61.5374667,11.7166773 61.6224671,11.6019091 C61.7074675,11.4871408 61.8449662,11.3748692 62.0349671,11.2650909 C62.3849689,11.0754738 62.7949648,10.9232834 63.2649671,10.8085152 C63.7349695,10.6937469 64.1899649,10.6363636 64.6299671,10.6363636 Z M64.1649671,17.1032727 C64.7149699,17.1032727 65.1649654,16.9161534 65.5149671,16.5419091 C65.8649689,16.1676648 66.0399671,15.6861444 66.0399671,15.0973333 L66.0399671,14.7081212 L65.7699671,14.7081212 C64.9899632,14.7081212 64.3899692,14.7430502 63.9699671,14.8129091 C63.549965,14.882768 63.249968,15.0000295 63.0699671,15.164697 C62.8899662,15.3293645 62.7999671,15.5663823 62.7999671,15.8757576 C62.7999671,16.2350321 62.9299658,16.5294332 63.1899671,16.7589697 C63.4499684,16.9885062 63.7749652,17.1032727 64.1649671,17.1032727 Z M75.4130921,10.6363636 C76.0530953,10.6363636 76.6180897,10.791049 77.1080921,11.1004242 C77.5980946,11.4097995 77.9805907,11.8489062 78.2555921,12.4177576 C78.5305935,12.9866089 78.6680921,13.6502588 78.6680921,14.4087273 C78.6680921,15.1572159 78.5305935,15.8208658 78.2555921,16.399697 C77.9805907,16.9785281 77.5955946,17.4276146 77.1005921,17.7469697 C76.6055896,18.0663248 76.0430953,18.226 75.4130921,18.226 C74.8630894,18.226 74.3780942,18.1087385 73.9580921,17.8742121 C73.53809,17.6396857 73.2180932,17.3028709 72.9980921,16.8637576 L72.9980921,17.4625455 C72.9980921,17.6821021 72.9305928,17.8592418 72.7955921,17.9939697 C72.6605914,18.1286976 72.4780933,18.1960606 72.2480921,18.1960606 C72.018091,18.1960606 71.8330928,18.1286976 71.6930921,17.9939697 C71.5530914,17.8592418 71.4830921,17.6821021 71.4830921,17.4625455 L71.4830921,8.21127273 C71.4830921,7.99171607 71.5555914,7.81707136 71.7005921,7.68733333 C71.8455928,7.55759531 72.033091,7.49272727 72.2630921,7.49272727 C72.4830932,7.49272727 72.6605914,7.55510039 72.7955921,7.67984848 C72.9305928,7.80459658 72.9980921,7.97175653 72.9980921,8.18133333 L72.9980921,12.0135758 C73.2180932,11.5744625 73.53809,11.2351527 73.9580921,10.9956364 C74.3780942,10.75612 74.8630894,10.6363636 75.4130921,10.6363636 Z M75.0530921,17.0284242 C75.7030954,17.0284242 76.2105903,16.7988912 76.5755921,16.3398182 C76.9405939,15.8807452 77.1230921,15.2370546 77.1230921,14.4087273 C77.1230921,13.5903797 76.9430939,12.9591638 76.5830921,12.5150606 C76.2230903,12.0709574 75.7130954,11.8489091 75.0530921,11.8489091 C74.3930888,11.8489091 73.8855939,12.0734523 73.5305921,12.5225455 C73.1755903,12.9716386 72.9980921,13.6103393 72.9980921,14.4386667 C72.9980921,15.266994 73.1755903,15.9056947 73.5305921,16.3547879 C73.8855939,16.803881 74.3930888,17.0284242 75.0530921,17.0284242 Z M83.0162171,18.1960606 C82.796216,18.1960606 82.6137178,18.1361824 82.4687171,18.0164242 C82.3237164,17.8966661 82.2512171,17.7170315 82.2512171,17.4775152 L82.2512171,11.3998182 C82.2512171,11.1603018 82.3237164,10.9781723 82.4687171,10.8534242 C82.6137178,10.7286761 82.796216,10.666303 83.0162171,10.666303 C83.2362182,10.666303 83.4162164,10.7286761 83.5562171,10.8534242 C83.6962178,10.9781723 83.7662171,11.1603018 83.7662171,11.3998182 L83.7662171,17.4775152 C83.7662171,17.7170315 83.6962178,17.8966661 83.5562171,18.0164242 C83.4162164,18.1361824 83.2362182,18.1960606 83.0162171,18.1960606 Z M83.0162171,9.19927273 C82.7262157,9.19927273 82.496218,9.11943514 82.3262171,8.95975758 C82.1562163,8.80008001 82.0712171,8.59050635 82.0712171,8.3310303 C82.0712171,8.07155426 82.1562163,7.86447552 82.3262171,7.70978788 C82.496218,7.55510024 82.7262157,7.47775758 83.0162171,7.47775758 C83.2962185,7.47775758 83.5237162,7.55510024 83.6987171,7.70978788 C83.873718,7.86447552 83.9612171,8.07155426 83.9612171,8.3310303 C83.9612171,8.59050635 83.876218,8.80008001 83.7062171,8.95975758 C83.5362163,9.11943514 83.3062186,9.19927273 83.0162171,9.19927273 Z M88.5493421,18.1960606 C88.329341,18.1960606 88.1468428,18.1361824 88.0018421,18.0164242 C87.8568414,17.8966661 87.7843421,17.7170315 87.7843421,17.4775152 L87.7843421,8.22624242 C87.7843421,7.98672608 87.8568414,7.80459658 88.0018421,7.67984848 C88.1468428,7.55510039 88.329341,7.49272727 88.5493421,7.49272727 C88.7693432,7.49272727 88.9493414,7.55510039 89.0893421,7.67984848 C89.2293428,7.80459658 89.2993421,7.98672608 89.2993421,8.22624242 L89.2993421,17.4775152 C89.2993421,17.7170315 89.2293428,17.8966661 89.0893421,18.0164242 C88.9493414,18.1361824 88.7693432,18.1960606 88.5493421,18.1960606 Z" id="babil" fill="#FFFFFF"></path>
                <g id="Group-7" fill-rule="nonzero">
                    <ellipse id="Oval" fill="url(#linearGradient-1)" cx="13.0263158" cy="13" rx="13.0263158" ry="13"></ellipse>
                    <ellipse id="Oval-Copy" fill="#FFFFFF" cx="24.8684211" cy="13" rx="13.0263158" ry="13"></ellipse>
                </g>
            </g>
        </g>
    </g>
</svg>