<?xml version="1.0" encoding="UTF-8"?>
<svg width="88px" height="26px" viewBox="0 0 88 26" version="1.1" xmlns="http://www.w3.org/2000/svg" xmlns:xlink="http://www.w3.org/1999/xlink">
    <!-- Generator: Sketch 52.4 (67378) - http://www.bohemiancoding.com/sketch -->
    <title>Group 12</title>
    <desc>Created with Sketch.</desc>
    <defs>
        <linearGradient x1="0%" y1="0%" x2="100%" y2="100%" id="linearGradient-1">
            <stop stop-color="#111D29" offset="0%"></stop>
            <stop stop-color="#25242B" offset="100%"></stop>
        </linearGradient>
    </defs>
    <g id="Page-1" stroke="none" stroke-width="1" fill="none" fill-rule="evenodd">
        <g id="Dark" transform="translate(-70.000000, -5483.000000)">
            <g id="Group-12" transform="translate(70.000000, 5483.000000)">
                <path d="M53.3138462,10.6363636 C53.937439,10.6363636 54.4879463,10.791049 54.9653846,11.1004242 C55.4428229,11.4097995 55.8155115,11.8489062 56.0834615,12.4177576 C56.3514116,12.9866089 56.4853846,13.6502588 56.4853846,14.4087273 C56.4853846,15.1572159 56.3514116,15.8208658 56.0834615,16.399697 C55.8155115,16.9785281 55.440387,17.4276146 54.9580769,17.7469697 C54.4757668,18.0663248 53.9276954,18.226 53.3138462,18.226 C52.777946,18.226 52.3053867,18.1087385 51.8961538,17.8742121 C51.486921,17.6396857 51.1751293,17.3028709 50.9607692,16.8637576 L50.9607692,17.4625455 C50.9607692,17.6821021 50.8950007,17.8592418 50.7634615,17.9939697 C50.6319224,18.1286976 50.4541037,18.1960606 50.23,18.1960606 C50.0058963,18.1960606 49.8256417,18.1286976 49.6892308,17.9939697 C49.5528198,17.8592418 49.4846154,17.6821021 49.4846154,17.4625455 L49.4846154,8.21127273 C49.4846154,7.99171607 49.5552557,7.81707136 49.6965385,7.68733333 C49.8378212,7.55759531 50.0205117,7.49272727 50.2446154,7.49272727 C50.4589754,7.49272727 50.6319224,7.55510039 50.7634615,7.67984848 C50.8950007,7.80459658 50.9607692,7.97175653 50.9607692,8.18133333 L50.9607692,12.0135758 C51.1751293,11.5744625 51.486921,11.2351527 51.8961538,10.9956364 C52.3053867,10.75612 52.777946,10.6363636 53.3138462,10.6363636 Z M52.9630769,17.0284242 C53.5964134,17.0284242 54.0908957,16.7988912 54.4465385,16.3398182 C54.8021813,15.8807452 54.98,15.2370546 54.98,14.4087273 C54.98,13.5903797 54.8046171,12.9591638 54.4538462,12.5150606 C54.1030752,12.0709574 53.6061571,11.8489091 52.9630769,11.8489091 C52.3199968,11.8489091 51.8255146,12.0734523 51.4796154,12.5225455 C51.1337162,12.9716386 50.9607692,13.6103393 50.9607692,14.4386667 C50.9607692,15.266994 51.1337162,15.9056947 51.4796154,16.3547879 C51.8255146,16.803881 52.3199968,17.0284242 52.9630769,17.0284242 Z M62.9727885,10.6363636 C63.9179214,10.6363636 64.6218887,10.8808662 65.0847115,11.3698788 C65.5475344,11.8588913 65.7789423,12.6023788 65.7789423,13.6003636 L65.7789423,17.4775152 C65.7789423,17.7070517 65.7156096,17.8841913 65.5889423,18.0089394 C65.462275,18.1336875 65.2868921,18.1960606 65.0627885,18.1960606 C64.8484284,18.1960606 64.6779173,18.1311926 64.55125,18.0014545 C64.4245827,17.8717165 64.36125,17.6970718 64.36125,17.4775152 L64.36125,16.9236364 C64.1761209,17.34279 63.9008672,17.6646352 63.5354808,17.8891818 C63.1700943,18.1137284 62.7438165,18.226 62.2566346,18.226 C61.78894,18.226 61.3602263,18.1286979 60.9704808,17.9340909 C60.5807352,17.7394839 60.2762511,17.4675371 60.0570192,17.1182424 C59.8377874,16.7689477 59.7281731,16.3797395 59.7281731,15.9506061 C59.7281731,15.4216741 59.8621461,15.0050217 60.1300962,14.7006364 C60.3980462,14.396251 60.8413751,14.1791926 61.4600962,14.0494545 C62.0788172,13.9197165 62.9289369,13.8548485 64.0104808,13.8548485 L64.3466346,13.8548485 L64.3466346,13.4207273 C64.3466346,12.8618558 64.2345845,12.457678 64.0104808,12.2081818 C63.7863771,11.9586856 63.4258679,11.8339394 62.9289423,11.8339394 C62.587915,11.8339394 62.2663797,11.878848 61.9643269,11.9686667 C61.6622741,12.0584853 61.3309954,12.1882214 60.9704808,12.3578788 C60.7074025,12.5075765 60.5222762,12.5824242 60.4150962,12.5824242 C60.2689416,12.5824242 60.1495838,12.5275359 60.0570192,12.4177576 C59.9644547,12.3079792 59.9181731,12.1682635 59.9181731,11.9986061 C59.9181731,11.8489083 59.9595829,11.7166773 60.0424038,11.6019091 C60.1252248,11.4871408 60.2591978,11.3748692 60.4443269,11.2650909 C60.7853543,11.0754738 61.1848375,10.9232834 61.6427885,10.8085152 C62.1007395,10.6937469 62.5440684,10.6363636 62.9727885,10.6363636 Z M62.5197115,17.1032727 C63.0556117,17.1032727 63.4940688,16.9161534 63.8350962,16.5419091 C64.1761235,16.1676648 64.3466346,15.6861444 64.3466346,15.0973333 L64.3466346,14.7081212 L64.0835577,14.7081212 C63.3235539,14.7081212 62.7389444,14.7430502 62.3297115,14.8129091 C61.9204787,14.882768 61.628174,15.0000295 61.4527885,15.164697 C61.277403,15.3293645 61.1897115,15.5663823 61.1897115,15.8757576 C61.1897115,16.2350321 61.3163769,16.5294332 61.5697115,16.7589697 C61.8230461,16.9885062 62.1397096,17.1032727 62.5197115,17.1032727 Z M73.4794231,10.6363636 C74.1030159,10.6363636 74.6535233,10.791049 75.1309615,11.1004242 C75.6083998,11.4097995 75.9810884,11.8489062 76.2490385,12.4177576 C76.5169885,12.9866089 76.6509615,13.6502588 76.6509615,14.4087273 C76.6509615,15.1572159 76.5169885,15.8208658 76.2490385,16.399697 C75.9810884,16.9785281 75.6059639,17.4276146 75.1236538,17.7469697 C74.6413437,18.0663248 74.0932723,18.226 73.4794231,18.226 C72.943523,18.226 72.4709636,18.1087385 72.0617308,17.8742121 C71.652498,17.6396857 71.3407062,17.3028709 71.1263462,16.8637576 L71.1263462,17.4625455 C71.1263462,17.6821021 71.0605776,17.8592418 70.9290385,17.9939697 C70.7974993,18.1286976 70.6196806,18.1960606 70.3955769,18.1960606 C70.1714732,18.1960606 69.9912186,18.1286976 69.8548077,17.9939697 C69.7183968,17.8592418 69.6501923,17.6821021 69.6501923,17.4625455 L69.6501923,8.21127273 C69.6501923,7.99171607 69.7208326,7.81707136 69.8621154,7.68733333 C70.0033981,7.55759531 70.1860886,7.49272727 70.4101923,7.49272727 C70.6245524,7.49272727 70.7974993,7.55510039 70.9290385,7.67984848 C71.0605776,7.80459658 71.1263462,7.97175653 71.1263462,8.18133333 L71.1263462,12.0135758 C71.3407062,11.5744625 71.652498,11.2351527 72.0617308,10.9956364 C72.4709636,10.75612 72.943523,10.6363636 73.4794231,10.6363636 Z M73.1286538,17.0284242 C73.7619903,17.0284242 74.2564726,16.7988912 74.6121154,16.3398182 C74.9677582,15.8807452 75.1455769,15.2370546 75.1455769,14.4087273 C75.1455769,13.5903797 74.9701941,12.9591638 74.6194231,12.5150606 C74.2686521,12.0709574 73.771734,11.8489091 73.1286538,11.8489091 C72.4855737,11.8489091 71.9910915,12.0734523 71.6451923,12.5225455 C71.2992931,12.9716386 71.1263462,13.6103393 71.1263462,14.4386667 C71.1263462,15.266994 71.2992931,15.9056947 71.6451923,16.3547879 C71.9910915,16.803881 72.4855737,17.0284242 73.1286538,17.0284242 Z M80.8875962,18.1960606 C80.6732361,18.1960606 80.4954174,18.1361824 80.3541346,18.0164242 C80.2128519,17.8966661 80.1422115,17.7170315 80.1422115,17.4775152 L80.1422115,11.3998182 C80.1422115,11.1603018 80.2128519,10.9781723 80.3541346,10.8534242 C80.4954174,10.7286761 80.6732361,10.666303 80.8875962,10.666303 C81.1019562,10.666303 81.2773391,10.7286761 81.41375,10.8534242 C81.5501609,10.9781723 81.6183654,11.1603018 81.6183654,11.3998182 L81.6183654,17.4775152 C81.6183654,17.7170315 81.5501609,17.8966661 81.41375,18.0164242 C81.2773391,18.1361824 81.1019562,18.1960606 80.8875962,18.1960606 Z M80.8875962,9.19927273 C80.6050306,9.19927273 80.3809303,9.11943514 80.2152885,8.95975758 C80.0496466,8.80008001 79.9668269,8.59050635 79.9668269,8.3310303 C79.9668269,8.07155426 80.0496466,7.86447552 80.2152885,7.70978788 C80.3809303,7.55510024 80.6050306,7.47775758 80.8875962,7.47775758 C81.160418,7.47775758 81.3820825,7.55510024 81.5525962,7.70978788 C81.7231098,7.86447552 81.8083654,8.07155426 81.8083654,8.3310303 C81.8083654,8.59050635 81.7255457,8.80008001 81.5599038,8.95975758 C81.394262,9.11943514 81.1701617,9.19927273 80.8875962,9.19927273 Z M86.2788462,18.1960606 C86.0644861,18.1960606 85.8866674,18.1361824 85.7453846,18.0164242 C85.6041019,17.8966661 85.5334615,17.7170315 85.5334615,17.4775152 L85.5334615,8.22624242 C85.5334615,7.98672608 85.6041019,7.80459658 85.7453846,7.67984848 C85.8866674,7.55510039 86.0644861,7.49272727 86.2788462,7.49272727 C86.4932062,7.49272727 86.6685891,7.55510039 86.805,7.67984848 C86.9414109,7.80459658 87.0096154,7.98672608 87.0096154,8.22624242 L87.0096154,17.4775152 C87.0096154,17.7170315 86.9414109,17.8966661 86.805,18.0164242 C86.6685891,18.1361824 86.4932062,18.1960606 86.2788462,18.1960606 Z" id="babil" fill="#1E3056"></path>
                <g id="Group-7" fill="url(#linearGradient-1)" fill-rule="nonzero">
                    <ellipse id="Oval" opacity="0.394205729" cx="12.6923077" cy="13" rx="12.6923077" ry="13"></ellipse>
                    <ellipse id="Oval-Copy" cx="24.2307692" cy="13" rx="12.6923077" ry="13"></ellipse>
                </g>
            </g>
        </g>
    </g>
</svg>